<svg width="2520" height="829" viewBox="0 0 2520 829" fill="none" xmlns="http://www.w3.org/2000/svg">
<path opacity="0.4" fill-rule="evenodd" clip-rule="evenodd" d="M1978.24 127.926C1751.05 161.467 1508.89 175.06 1323.14 134.276C1207.2 108.819 1068.06 117.59 923.839 145.155C779.63 172.718 630.385 219.066 494.257 268.729C358.131 318.391 235.131 371.365 143.41 412.178C119.144 422.976 97.0575 432.927 77.4984 441.739L77.4711 441.751L77.4592 441.757L77.4574 441.758C60.0794 449.587 44.6974 456.518 31.5555 462.344C17.5798 468.54 6.12063 473.495 -2.53403 476.964C-6.86108 478.699 -10.4927 480.065 -13.3905 481.029C-16.2762 481.99 -18.4713 482.565 -19.9084 482.697L-20 481.702C-18.688 481.581 -16.5889 481.04 -13.7063 480.08C-10.8357 479.125 -7.22482 477.767 -2.90613 476.036C5.7307 472.573 17.176 467.625 31.1502 461.43C44.3001 455.6 59.6745 448.673 77.0452 440.847C96.608 432.033 118.703 422.078 143.004 411.265C234.733 370.447 357.757 317.463 493.915 267.789C630.071 218.116 779.37 171.75 923.651 144.172C1067.93 116.597 1207.22 107.8 1323.35 133.299C1508.92 174.043 1750.93 160.473 1978.1 126.937C2205.25 93.4027 2417.51 39.9144 2543.53 0.861328L2543.83 1.81652C2417.76 40.8834 2205.45 94.3838 1978.24 127.926ZM1978.24 229.469C1751.05 263.01 1508.89 276.603 1323.14 235.818C1207.2 210.362 1068.06 219.133 923.839 246.698C779.63 274.261 630.385 320.609 494.257 370.272C358.131 419.934 235.131 472.908 143.41 513.721C119.134 524.523 97.0392 534.478 77.4741 543.293L77.4574 543.301C60.0794 551.13 44.6974 558.061 31.5555 563.887C17.5798 570.083 6.12063 575.037 -2.53403 578.507C-6.86108 580.242 -10.4927 581.608 -13.3905 582.572C-16.2762 583.533 -18.4713 584.108 -19.9084 584.24L-20 583.245C-18.688 583.124 -16.5889 582.583 -13.7063 581.623C-10.8357 580.668 -7.22482 579.31 -2.90613 577.579C5.7307 574.116 17.176 569.168 31.1502 562.973C44.2865 557.149 59.6428 550.23 76.9915 542.414L77.0359 542.394L77.0452 542.39C96.608 533.575 118.703 523.621 143.004 512.808C234.733 471.99 357.757 419.006 493.915 369.332C630.071 319.659 779.37 273.293 923.651 245.715C1067.93 218.139 1207.22 209.343 1323.35 234.842C1508.92 275.586 1750.93 262.016 1978.1 228.48C2205.25 194.946 2417.51 141.457 2543.53 102.404L2543.83 103.359C2417.76 142.426 2205.45 195.927 1978.24 229.469ZM1323.14 340.305C1508.89 381.089 1751.05 367.496 1978.24 333.955C2205.45 300.413 2417.76 246.913 2543.83 207.846L2543.53 206.891C2417.51 245.944 2205.25 299.432 1978.1 332.966C1750.93 366.502 1508.92 380.073 1323.35 339.328C1207.22 313.829 1067.93 322.626 923.651 350.202C779.37 377.779 630.071 424.145 493.915 473.818C357.757 523.492 234.733 576.477 143.004 617.294C118.703 628.107 96.608 638.062 77.0452 646.876C59.6745 654.702 44.3001 661.629 31.1502 667.459C17.176 673.654 5.7307 678.603 -2.90613 682.065C-7.22482 683.797 -10.8357 685.154 -13.7063 686.11C-16.5889 687.069 -18.688 687.61 -20 687.731L-19.9084 688.727C-18.4713 688.594 -16.2762 688.019 -13.3905 687.058C-10.4927 686.094 -6.86108 684.728 -2.53403 682.993C6.12063 679.524 17.5798 674.569 31.5555 668.373C44.6946 662.548 60.0727 655.62 77.4461 647.792L77.4574 647.787C97.0266 638.97 119.127 629.013 143.41 618.208C235.131 577.394 358.131 524.42 494.257 474.758C630.385 425.095 779.63 378.747 923.839 351.184C1068.06 323.619 1207.2 314.848 1323.14 340.305ZM1978.24 420.784C1751.05 454.324 1508.89 467.918 1323.14 427.133C1207.2 401.676 1068.06 410.447 923.839 438.012C779.63 465.576 630.385 511.923 494.257 561.586C358.131 611.248 235.131 664.222 143.41 705.036C119.127 715.841 97.0266 725.798 77.4574 734.615L77.4461 734.62C60.0727 742.448 44.6946 749.376 31.5555 755.201C17.5798 761.397 6.12063 766.352 -2.53403 769.822C-6.86108 771.556 -10.4927 772.922 -13.3905 773.887C-16.2762 774.847 -18.4713 775.423 -19.9084 775.555L-20 774.559C-18.688 774.438 -16.5889 773.897 -13.7063 772.938C-10.8357 771.982 -7.22482 770.625 -2.90613 768.893C5.7307 765.431 17.176 760.482 31.1502 754.287C44.3001 748.457 59.6745 741.53 77.0452 733.704C96.608 724.89 118.703 714.935 143.004 704.122C234.733 663.305 357.757 610.32 493.915 560.647C630.071 510.973 779.37 464.607 923.651 437.03C1067.93 409.454 1207.22 400.657 1323.35 426.156C1508.92 466.901 1750.93 453.33 1978.1 419.794C2205.25 386.26 2417.51 332.772 2543.53 293.719L2543.83 294.674C2417.76 333.741 2205.45 387.241 1978.24 420.784ZM1323.14 516.166C1508.89 556.951 1751.05 543.357 1978.24 509.817C2205.45 476.274 2417.76 422.774 2543.83 383.707L2543.53 382.752C2417.51 421.805 2205.25 475.293 1978.1 508.827C1750.93 542.363 1508.92 555.934 1323.35 515.189C1207.22 489.691 1067.93 498.487 923.651 526.063C779.37 553.64 630.071 600.007 493.915 649.68C357.757 699.354 234.733 752.338 143.004 793.155C118.703 803.968 96.608 813.923 77.0452 822.737C59.6745 830.564 44.3001 837.49 31.1502 843.32C17.176 849.516 5.7307 854.464 -2.90613 857.927C-7.22482 859.658 -10.8357 861.015 -13.7063 861.971C-16.5889 862.93 -18.688 863.471 -20 863.592L-19.9084 864.588C-18.4713 864.456 -16.2762 863.88 -13.3905 862.92C-10.4927 861.955 -6.86108 860.589 -2.53403 858.855C6.12063 855.385 17.5798 850.43 31.5555 844.234C44.6946 838.409 60.0727 831.481 77.4461 823.653L77.4574 823.648C97.0266 814.831 119.127 804.874 143.41 794.069C235.131 753.256 358.131 700.282 494.257 650.619C630.385 600.956 779.63 554.609 923.839 527.045C1068.06 499.48 1207.2 490.709 1323.14 516.166Z" fill="url(#paint0_linear)"/>
<defs>
<linearGradient id="paint0_linear" x1="-20" y1="422.5" x2="2503.5" y2="433" gradientUnits="userSpaceOnUse">
<stop stop-color="white" stop-opacity="0"/>
<stop offset="1" stop-color="white"/>
</linearGradient>
</defs>
</svg>
