<svg width="105" height="26" viewBox="0 0 105 26" fill="none" xmlns="http://www.w3.org/2000/svg">
<path d="M51.281 3V5.90625H45.4522V24.7188H41.8603V5.90625H36V3H51.281Z" fill="#2D2369"/>
<path d="M53.7213 16.0313C53.7213 14.3021 54.0784 12.7708 54.7926 11.4375C55.5277 10.1042 56.515 9.07292 57.7542 8.34375C59.0145 7.59375 60.4008 7.21875 61.9132 7.21875C63.2785 7.21875 64.4653 7.48958 65.4735 8.03125C66.5027 8.55208 67.3219 9.20833 67.9311 10V7.5H71.5544V24.7188H67.9311V22.1563C67.3219 22.9688 66.4922 23.6458 65.442 24.1875C64.3917 24.7292 63.1945 25 61.8502 25C60.3588 25 58.9935 24.625 57.7542 23.875C56.515 23.1042 55.5277 22.0417 54.7926 20.6875C54.0784 19.3125 53.7213 17.7604 53.7213 16.0313ZM67.9311 16.0938C67.9311 14.9063 67.679 13.875 67.1749 13C66.6918 12.125 66.0511 11.4583 65.2529 11C64.4548 10.5417 63.5936 10.3125 62.6694 10.3125C61.7451 10.3125 60.8839 10.5417 60.0858 11C59.2876 11.4375 58.6364 12.0938 58.1323 12.9688C57.6492 13.8229 57.4077 14.8438 57.4077 16.0313C57.4077 17.2188 57.6492 18.2604 58.1323 19.1563C58.6364 20.0521 59.2876 20.7396 60.0858 21.2188C60.905 21.6771 61.7662 21.9063 62.6694 21.9063C63.5936 21.9063 64.4548 21.6771 65.2529 21.2188C66.0511 20.7604 66.6918 20.0938 67.1749 19.2188C67.679 18.3229 67.9311 17.2813 67.9311 16.0938Z" fill="#2D2369"/>
<path d="M79.8639 10C80.389 9.125 81.0822 8.44792 81.9434 7.96875C82.8256 7.46875 83.8653 7.21875 85.0626 7.21875V10.9063H84.1489C82.7416 10.9063 81.6703 11.2604 80.9352 11.9688C80.221 12.6771 79.8639 13.9063 79.8639 15.6563V24.7188H76.2721V7.5H79.8639V10Z" fill="#2D2369"/>
<path d="M87.1669 16.0313C87.1669 14.3021 87.524 12.7708 88.2382 11.4375C88.9733 10.1042 89.9606 9.07292 91.1999 8.34375C92.4601 7.59375 93.8465 7.21875 95.3588 7.21875C96.7241 7.21875 97.9109 7.48958 98.9191 8.03125C99.9483 8.55208 100.768 9.20833 101.377 10V7.5H105V24.7188H101.377V22.1563C100.768 22.9688 99.9378 23.6458 98.8876 24.1875C97.8374 24.7292 96.6401 25 95.2958 25C93.8044 25 92.4391 24.625 91.1999 23.875C89.9606 23.1042 88.9733 22.0417 88.2382 20.6875C87.524 19.3125 87.1669 17.7604 87.1669 16.0313ZM101.377 16.0938C101.377 14.9063 101.125 13.875 100.621 13C100.137 12.125 99.4967 11.4583 98.6986 11C97.9004 10.5417 97.0392 10.3125 96.115 10.3125C95.1908 10.3125 94.3296 10.5417 93.5314 11C92.7332 11.4375 92.0821 12.0938 91.5779 12.9688C91.0948 13.8229 90.8533 14.8438 90.8533 16.0313C90.8533 17.2188 91.0948 18.2604 91.5779 19.1563C92.0821 20.0521 92.7332 20.7396 93.5314 21.2188C94.3506 21.6771 95.2118 21.9063 96.115 21.9063C97.0392 21.9063 97.9004 21.6771 98.6986 21.2188C99.4967 20.7604 100.137 20.0938 100.621 19.2188C101.125 18.3229 101.377 17.2813 101.377 16.0938Z" fill="#2D2369"/>
<path d="M26 12L19 12C16.2386 12 14 9.76142 14 7L14 9.53989e-08L21 -5.1656e-07C23.7614 -7.57972e-07 26 2.23858 26 5L26 12Z" fill="#28C29D"/>
<path d="M12 26L5 26C2.23858 26 -7.57972e-07 23.7614 -5.1656e-07 21L9.53989e-08 14L7 14C9.76142 14 12 16.2386 12 19L12 26Z" fill="#28C29D"/>
<path d="M0 12L-3.0598e-07 5C-4.26685e-07 2.23858 2.23858 8.55823e-07 5 7.35117e-07L12 4.29138e-07L12 7C12 9.76142 9.76142 12 7 12L0 12Z" fill="#4570E0"/>
<path d="M26 14L26 21C26 23.7614 23.7614 26 21 26L14 26L14 19C14 16.2386 16.2386 14 19 14L26 14Z" fill="#4570E0"/>
</svg>
