<svg width="510" height="57" viewBox="0 0 510 57" fill="none" xmlns="http://www.w3.org/2000/svg">
<path opacity="0.6" d="M509 55.002L492.067 41.002L475.138 55.002L458.206 41.0019L441.275 55.0019L424.345 41.0019L407.413 55.0019L390.483 41.0019L373.551 55.0019L356.617 41.0019L339.685 55.0019L322.753 41.0019L305.821 55.0019L288.889 41.0019L271.956 55.0019L255.022 41.0019L238.088 55.0019L221.155 41.0019L204.222 55.0019L187.291 41.0019L170.359 55.0019L153.424 41.0019L136.492 55.0019L119.559 41.0019L102.624 55.0019L85.6883 41.0019L68.7515 55.0019L51.8154 41.0019L34.8786 55.0019L17.9393 41.0019L1.00003 55.0019" stroke="white" stroke-width="2"/>
<path opacity="0.8" d="M509 35.002L492.067 21.002L475.138 35.002L458.206 21.0019L441.275 35.0019L424.345 21.0019L407.413 35.0019L390.483 21.0019L373.551 35.0019L356.617 21.0019L339.685 35.0019L322.753 21.0019L305.821 35.0019L288.889 21.0019L271.956 35.0019L255.022 21.0019L238.088 35.0019L221.155 21.0019L204.222 35.0019L187.291 21.0019L170.359 35.0019L153.424 21.0019L136.492 35.0019L119.559 21.0019L102.624 35.0019L85.6883 21.0019L68.7515 35.0019L51.8154 21.0019L34.8786 35.0019L17.9393 21.0019L1.00003 35.0019" stroke="white" stroke-width="2"/>
<path d="M509 16.002L492.067 2.00195L475.138 16.002L458.206 2.00195L441.275 16.0019L424.345 2.00195L407.413 16.0019L390.483 2.00194L373.551 16.0019L356.617 2.00194L339.685 16.0019L322.753 2.00194L305.821 16.0019L288.889 2.00193L271.956 16.0019L255.022 2.00193L238.088 16.0019L221.155 2.00193L204.222 16.0019L187.291 2.00193L170.359 16.0019L153.424 2.00192L136.492 16.0019L119.559 2.00192L102.624 16.0019L85.6883 2.00192L68.7515 16.0019L51.8154 2.00191L34.8786 16.0019L17.9393 2.00191L1.00003 16.0019" stroke="white" stroke-width="2"/>
</svg>
